<?xml version="1.0" encoding="UTF-8"?>
<svg xmlns="http://www.w3.org/2000/svg" xmlns:xlink="http://www.w3.org/1999/xlink" width="375pt" height="374.999991pt" viewBox="0 0 375 374.999991" version="1.2">
<defs>
<clipPath id="clip1">
  <path d="M 107.710938 88.992188 L 257.710938 88.992188 L 257.710938 238.992188 L 107.710938 238.992188 Z M 107.710938 88.992188 "/>
</clipPath>
</defs>
<g id="surface1">
<g clip-path="url(#clip1)" clip-rule="nonzero">
<path style=" stroke:none;fill-rule:nonzero;fill:rgb(100%,100%,100%);fill-opacity:1;" d="M 240.191406 203.835938 C 236.675781 203.835938 233.277344 204.890625 230.582031 206.765625 L 203.980469 180.046875 C 203.746094 179.8125 203.511719 179.695312 203.277344 179.460938 C 206.558594 175.242188 208.550781 169.851562 208.550781 163.992188 C 208.550781 155.671875 204.566406 148.289062 198.472656 143.601562 L 209.371094 124.382812 C 211.128906 124.96875 213.121094 125.320312 215.113281 125.320312 C 225.074219 125.320312 233.277344 117.117188 233.277344 107.15625 C 233.277344 97.195312 225.074219 88.992188 214.996094 88.992188 C 204.917969 88.992188 196.832031 97.195312 196.832031 107.15625 C 196.832031 112.664062 199.292969 117.585938 203.160156 120.984375 L 192.261719 140.085938 C 189.332031 138.914062 186.050781 138.210938 182.652344 138.210938 C 176.792969 138.210938 171.519531 140.203125 167.183594 143.367188 C 167.183594 143.25 167.066406 143.25 167.066406 143.132812 L 152.183594 128.25 C 153.003906 126.609375 153.472656 124.851562 153.472656 122.976562 C 153.472656 116.53125 148.199219 111.257812 141.753906 111.257812 C 135.308594 111.257812 130.035156 116.53125 130.035156 122.976562 C 130.035156 129.421875 135.308594 134.695312 141.753906 134.695312 C 143.746094 134.695312 145.621094 134.226562 147.261719 133.289062 L 162.144531 148.171875 C 162.144531 148.171875 162.261719 148.289062 162.378906 148.289062 C 158.980469 152.742188 156.988281 158.132812 156.988281 163.992188 C 156.988281 169.148438 158.511719 173.953125 161.089844 177.9375 L 136.597656 199.265625 C 133.550781 197.039062 129.917969 195.75 125.816406 195.75 C 115.972656 195.75 107.769531 203.835938 107.769531 213.796875 C 107.769531 223.757812 115.972656 231.960938 125.933594 231.960938 C 135.894531 231.960938 144.097656 223.875 144.097656 213.796875 C 144.097656 210.398438 143.160156 207.117188 141.402344 204.421875 L 165.777344 183.328125 C 170.347656 187.3125 176.207031 189.773438 182.769531 189.773438 C 188.746094 189.773438 194.136719 187.78125 198.472656 184.382812 C 198.589844 184.617188 198.824219 184.851562 198.941406 185.085938 L 225.425781 211.6875 C 223.550781 214.5 222.496094 217.78125 222.496094 221.414062 C 222.496094 231.140625 230.347656 238.992188 240.074219 238.992188 C 249.800781 238.992188 257.652344 231.140625 257.652344 221.414062 C 257.652344 211.6875 249.917969 203.835938 240.191406 203.835938 Z M 240.191406 203.835938 "/>
</g>
</g>
</svg>
