<?xml version="1.0" encoding="UTF-8"?>
<svg xmlns="http://www.w3.org/2000/svg" xmlns:xlink="http://www.w3.org/1999/xlink" width="375pt" height="374.999991pt" viewBox="0 0 375 374.999991" version="1.2">
<defs>
<clipPath id="clip1">
  <path d="M 129.195312 241 L 271.695312 241 L 271.695312 268 L 129.195312 268 Z M 129.195312 241 "/>
</clipPath>
</defs>
<g id="surface1">
<path style=" stroke:none;fill-rule:nonzero;fill:rgb(100%,100%,100%);fill-opacity:1;" d="M 187.339844 213.796875 L 177.753906 213.796875 C 176.316406 213.796875 175.144531 212.699219 175.007812 211.304688 C 174.988281 211.214844 174.980469 211.125 174.960938 211.027344 L 158.117188 211.027344 C 158.582031 194.898438 165.859375 181.921875 173.855469 176.859375 C 174.511719 170.511719 175.621094 164.589844 177.035156 159.15625 C 178.773438 152.507812 181.003906 146.5625 183.414062 141.453125 C 184.359375 137.246094 196.277344 119.066406 201.582031 120.617188 C 207.8125 122.335938 215.113281 135.058594 217.71875 140.386719 C 222.242188 146.054688 226.945312 168.757812 227.789062 176.859375 C 235.78125 181.921875 243.054688 194.898438 243.527344 211.027344 L 226.683594 211.027344 C 226.652344 211.183594 226.632812 211.332031 226.601562 211.488281 C 226.378906 212.828125 225.21875 213.785156 223.890625 213.785156 L 223.890625 213.796875 L 215.09375 213.796875 L 218.363281 223.964844 L 184.074219 223.964844 Z M 213.890625 144.84375 L 187.78125 144.816406 C 185.78125 149.351562 183.902344 154.632812 182.363281 160.542969 C 178.925781 173.734375 177.332031 189.980469 180.09375 208.273438 L 221.546875 208.273438 C 224.300781 189.980469 222.71875 173.734375 219.285156 160.542969 C 217.742188 154.640625 215.878906 149.378906 213.890625 144.84375 Z M 213.890625 144.84375 "/>
<path style=" stroke:none;fill-rule:nonzero;fill:rgb(100%,100%,100%);fill-opacity:1;" d="M 193.40625 239.019531 C 193.40625 240.546875 192.164062 241.785156 190.648438 241.785156 C 189.128906 241.785156 187.886719 240.546875 187.886719 239.019531 L 187.886719 230.605469 C 187.886719 229.078125 189.128906 227.84375 190.648438 227.84375 C 192.164062 227.84375 193.40625 229.078125 193.40625 230.605469 Z M 193.40625 239.019531 "/>
<path style=" stroke:none;fill-rule:nonzero;fill:rgb(100%,100%,100%);fill-opacity:1;" d="M 211.78125 238.617188 C 211.78125 240.144531 210.546875 241.378906 209.027344 241.378906 C 207.503906 241.378906 206.269531 240.144531 206.269531 238.617188 L 206.269531 231.101562 C 206.269531 229.574219 207.503906 228.34375 209.027344 228.34375 C 210.546875 228.34375 211.78125 229.574219 211.78125 231.101562 Z M 211.78125 238.617188 "/>
<g clip-path="url(#clip1)" clip-rule="nonzero">
<path style=" stroke:none;fill-rule:evenodd;fill:rgb(100%,100%,100%);fill-opacity:1;" d="M 260.261719 246.976562 C 256.777344 244.339844 252.527344 242.617188 248.070312 241.863281 C 243.585938 241.109375 238.898438 241.355469 234.566406 242.65625 C 231.414062 243.613281 228.433594 245.140625 225.875 247.261719 C 226.738281 247.125 227.613281 247.054688 228.511719 247.054688 C 233.355469 247.054688 237.738281 249.019531 240.914062 252.199219 C 243.46875 254.761719 245.234375 258.113281 245.820312 261.847656 L 240.21875 261.847656 C 239.691406 259.636719 238.570312 257.652344 237.015625 256.097656 C 234.835938 253.929688 231.832031 252.578125 228.511719 252.578125 C 226.484375 252.578125 224.570312 253.078125 222.898438 253.96875 C 221.609375 254.648438 220.457031 255.558594 219.5 256.648438 L 219.539062 256.753906 C 218.484375 254.171875 216.933594 251.855469 215 249.910156 C 211.238281 246.15625 206.054688 243.828125 200.316406 243.828125 C 194.582031 243.828125 189.398438 246.15625 185.640625 249.910156 C 183.707031 251.855469 182.15625 254.171875 181.101562 256.753906 L 181.140625 256.648438 C 180.1875 255.5625 179.039062 254.652344 177.742188 253.96875 C 176.074219 253.078125 174.160156 252.578125 172.132812 252.578125 C 168.808594 252.578125 165.800781 253.929688 163.625 256.097656 C 162.101562 257.632812 160.980469 259.578125 160.457031 261.75 L 160.421875 261.847656 L 154.820312 261.847656 C 155.402344 258.113281 157.171875 254.761719 159.730469 252.199219 C 162.90625 249.019531 167.289062 247.054688 172.132812 247.054688 C 173.027344 247.054688 173.910156 247.125 174.765625 247.261719 C 172.207031 245.140625 169.226562 243.613281 166.078125 242.65625 C 161.742188 241.355469 157.054688 241.109375 152.574219 241.863281 C 148.113281 242.617188 143.863281 244.339844 140.382812 246.976562 C 135.851562 250.410156 132.597656 255.414062 131.867188 261.847656 C 130.34375 261.847656 129.117188 263.089844 129.117188 264.613281 C 129.113281 266.128906 130.339844 267.371094 131.863281 267.371094 L 268.777344 267.371094 C 270.300781 267.371094 271.53125 266.128906 271.53125 264.613281 C 271.53125 263.089844 270.300781 261.847656 268.777344 261.847656 C 268.042969 255.414062 264.792969 250.410156 260.261719 246.976562 Z M 260.261719 246.976562 "/>
</g>
<path style=" stroke:none;fill-rule:evenodd;fill:rgb(100%,100%,100%);fill-opacity:1;" d="M 200.824219 161.757812 C 208.144531 161.757812 214.09375 167.699219 214.09375 175.035156 C 214.09375 182.375 208.144531 188.320312 200.824219 188.320312 C 193.5 188.320312 187.554688 182.375 187.554688 175.035156 C 187.554688 167.699219 193.5 161.757812 200.824219 161.757812 Z M 200.824219 168.386719 C 204.492188 168.386719 207.464844 171.367188 207.464844 175.035156 C 207.464844 178.710938 204.492188 181.691406 200.824219 181.691406 C 197.152344 181.691406 194.1875 178.710938 194.1875 175.035156 C 194.1875 171.363281 197.152344 168.386719 200.824219 168.386719 Z M 200.824219 168.386719 "/>
</g>
</svg>
