<?xml version="1.0" encoding="UTF-8"?>
<svg xmlns="http://www.w3.org/2000/svg" xmlns:xlink="http://www.w3.org/1999/xlink" width="375pt" height="374.999991pt" viewBox="0 0 375 374.999991" version="1.2">
<defs>
<clipPath id="clip1">
  <path d="M 192 117.871094 L 197 117.871094 L 197 129 L 192 129 Z M 192 117.871094 "/>
</clipPath>
<clipPath id="clip2">
  <path d="M 96.210938 207 L 123 207 L 123 243 L 96.210938 243 Z M 96.210938 207 "/>
</clipPath>
</defs>
<g id="surface1">
<path style=" stroke:none;fill-rule:nonzero;fill:rgb(100%,100%,100%);fill-opacity:1;" d="M 169.664062 165.59375 L 175.632812 160.933594 C 176.378906 160.347656 177.453125 160.480469 178.035156 161.226562 C 178.617188 161.96875 178.484375 163.050781 177.738281 163.628906 L 171.773438 168.292969 C 171.027344 168.875 169.953125 168.742188 169.371094 167.996094 C 168.789062 167.25 168.921875 166.175781 169.664062 165.59375 "/>
<path style=" stroke:none;fill-rule:nonzero;fill:rgb(100%,100%,100%);fill-opacity:1;" d="M 164.789062 153.3125 L 172.195312 151.738281 C 173.121094 151.539062 174.03125 152.128906 174.226562 153.054688 C 174.421875 153.980469 173.828125 154.890625 172.90625 155.085938 L 165.5 156.660156 C 164.574219 156.855469 163.667969 156.265625 163.46875 155.339844 C 163.273438 154.417969 163.863281 153.507812 164.789062 153.3125 "/>
<path style=" stroke:none;fill-rule:nonzero;fill:rgb(100%,100%,100%);fill-opacity:1;" d="M 174.382812 144.039062 C 174.15625 144.957031 173.222656 145.515625 172.308594 145.285156 L 164.960938 143.453125 C 164.042969 143.222656 163.488281 142.296875 163.710938 141.378906 C 163.941406 140.460938 164.867188 139.902344 165.789062 140.132812 L 173.136719 141.964844 C 174.054688 142.191406 174.613281 143.121094 174.382812 144.039062 "/>
<path style=" stroke:none;fill-rule:nonzero;fill:rgb(100%,100%,100%);fill-opacity:1;" d="M 176.066406 136.214844 L 170.265625 131.347656 C 169.539062 130.742188 169.445312 129.664062 170.054688 128.933594 C 170.660156 128.214844 171.742188 128.117188 172.460938 128.722656 L 178.265625 133.59375 C 178.988281 134.199219 179.085938 135.28125 178.480469 136.003906 C 177.867188 136.726562 176.789062 136.824219 176.066406 136.214844 "/>
<path style=" stroke:none;fill-rule:nonzero;fill:rgb(100%,100%,100%);fill-opacity:1;" d="M 185.675781 130.578125 C 184.816406 130.964844 183.804688 130.574219 183.417969 129.710938 L 180.335938 122.792969 C 179.953125 121.929688 180.339844 120.914062 181.207031 120.53125 C 182.070312 120.148438 183.082031 120.535156 183.464844 121.398438 L 186.546875 128.316406 C 186.929688 129.183594 186.542969 130.195312 185.675781 130.578125 "/>
<g clip-path="url(#clip1)" clip-rule="nonzero">
<path style=" stroke:none;fill-rule:nonzero;fill:rgb(100%,100%,100%);fill-opacity:1;" d="M 194.527344 128.855469 C 193.585938 128.824219 192.847656 128.03125 192.878906 127.085938 L 193.144531 119.519531 C 193.175781 118.574219 193.96875 117.832031 194.914062 117.867188 C 195.859375 117.898438 196.597656 118.695312 196.5625 119.636719 L 196.300781 127.207031 C 196.269531 128.152344 195.472656 128.890625 194.527344 128.855469 "/>
</g>
<path style=" stroke:none;fill-rule:nonzero;fill:rgb(100%,100%,100%);fill-opacity:1;" d="M 205.554688 130.484375 C 205.109375 131.316406 204.070312 131.636719 203.242188 131.1875 C 202.40625 130.746094 202.085938 129.710938 202.53125 128.875 L 206.085938 122.191406 C 206.53125 121.355469 207.566406 121.039062 208.402344 121.480469 C 209.234375 121.925781 209.550781 122.964844 209.109375 123.796875 L 205.554688 130.484375 "/>
<path style=" stroke:none;fill-rule:nonzero;fill:rgb(100%,100%,100%);fill-opacity:1;" d="M 218.5625 133.03125 L 212.433594 137.484375 C 211.667969 138.039062 210.601562 137.875 210.042969 137.109375 C 209.488281 136.34375 209.660156 135.273438 210.425781 134.71875 L 216.550781 130.265625 C 217.316406 129.710938 218.382812 129.875 218.941406 130.644531 C 219.496094 131.410156 219.328125 132.476562 218.5625 133.03125 "/>
<path style=" stroke:none;fill-rule:nonzero;fill:rgb(100%,100%,100%);fill-opacity:1;" d="M 215.550781 146.792969 C 214.621094 146.960938 213.730469 146.339844 213.570312 145.40625 C 213.402344 144.476562 214.027344 143.589844 214.953125 143.421875 L 222.414062 142.109375 C 223.34375 141.945312 224.234375 142.566406 224.394531 143.496094 C 224.5625 144.429688 223.9375 145.316406 223.011719 145.480469 L 215.550781 146.792969 "/>
<path style=" stroke:none;fill-rule:nonzero;fill:rgb(100%,100%,100%);fill-opacity:1;" d="M 213.097656 154.414062 C 213.359375 153.503906 214.304688 152.976562 215.214844 153.238281 L 222.492188 155.328125 C 223.402344 155.585938 223.925781 156.535156 223.664062 157.445312 C 223.40625 158.351562 222.460938 158.878906 221.550781 158.613281 L 214.269531 156.527344 C 213.363281 156.269531 212.835938 155.324219 213.097656 154.414062 "/>
<path style=" stroke:none;fill-rule:nonzero;fill:rgb(100%,100%,100%);fill-opacity:1;" d="M 211.140625 162.171875 L 216.769531 167.238281 C 217.472656 167.871094 217.53125 168.953125 216.898438 169.65625 C 216.261719 170.359375 215.179688 170.417969 214.476562 169.78125 L 208.851562 164.714844 C 208.148438 164.085938 208.09375 163 208.722656 162.300781 C 209.355469 161.597656 210.4375 161.539062 211.140625 162.171875 "/>
<path style=" stroke:none;fill-rule:nonzero;fill:rgb(100%,100%,100%);fill-opacity:1;" d="M 208.902344 208.277344 C 209.074219 209.21875 209.136719 210.179688 209.105469 211.144531 C 209.070312 211.941406 208.96875 212.6875 208.78125 213.441406 C 209.242188 213.183594 209.691406 212.980469 210.15625 212.726562 C 214.636719 210.371094 223.558594 206.898438 228.605469 205.097656 C 230.121094 204.558594 231.722656 204.019531 233.398438 203.695312 C 231.554688 201.996094 229.375 201.648438 227.011719 202.21875 C 222.3125 203.398438 213.519531 206.324219 208.980469 208.105469 C 208.929688 208.175781 208.917969 208.226562 208.902344 208.277344 "/>
<path style=" stroke:none;fill-rule:nonzero;fill:rgb(100%,100%,100%);fill-opacity:1;" d="M 207.167969 203.664062 C 207.367188 203.558594 207.53125 203.464844 207.75 203.386719 L 209.910156 202.539062 C 213.105469 201.285156 219.644531 199.910156 223.085938 198.867188 C 221.253906 197.207031 219.109375 196.839844 216.765625 197.445312 C 213.855469 198.191406 207.425781 199.375 204.445312 200.464844 C 205.515625 201.382812 206.425781 202.476562 207.167969 203.664062 "/>
<path style=" stroke:none;fill-rule:nonzero;fill:rgb(100%,100%,100%);fill-opacity:1;" d="M 241.019531 206.792969 C 238.351562 206.195312 232.347656 208.53125 230.734375 209.121094 C 224.914062 211.175781 216.753906 214.53125 211.324219 217.363281 C 210.960938 217.566406 210.445312 217.804688 210.066406 217.976562 C 207.644531 219.144531 205.152344 219.789062 202.453125 219.988281 C 187.652344 221.101562 166.652344 218.433594 166.652344 218.433594 L 165.429688 218.335938 C 164.515625 218.238281 163.789062 217.472656 163.78125 216.523438 C 163.769531 215.492188 164.652344 214.660156 165.667969 214.703125 L 197.234375 216.097656 C 200.707031 216.207031 203.914062 213.261719 204.089844 209.453125 C 204.269531 205.636719 201.328125 202.429688 197.824219 202.339844 L 170.207031 198.023438 C 168.402344 197.726562 165.558594 196.882812 163.917969 196.109375 C 146.714844 187.96875 135.84375 191.660156 130.128906 193.269531 C 130.128906 193.269531 128.949219 193.789062 127.277344 194.675781 L 115.285156 202.261719 C 115.121094 202.347656 115.132812 202.332031 115.269531 202.230469 L 111.46875 204.625 L 127.394531 235.683594 L 137.191406 230.125 L 179.609375 238.167969 C 185.355469 239.648438 190.953125 239.699219 196.46875 237.644531 L 198.082031 237.050781 L 241.160156 218.679688 C 243.289062 217.761719 244.953125 215.929688 245.367188 213.628906 C 245.84375 210.902344 244.757812 207.617188 241.019531 206.792969 "/>
<g clip-path="url(#clip2)" clip-rule="nonzero">
<path style=" stroke:none;fill-rule:nonzero;fill:rgb(100%,100%,100%);fill-opacity:1;" d="M 98.207031 212.808594 C 97.015625 213.46875 96.605469 214.992188 97.261719 216.179688 L 111.453125 241.492188 C 112.113281 242.683594 113.632812 243.089844 114.824219 242.433594 L 122.027344 238.347656 L 106.308594 207.703125 L 98.207031 212.808594 "/>
</g>
<path style=" stroke:none;fill-rule:nonzero;fill:rgb(100%,100%,100%);fill-opacity:1;" d="M 187.425781 178.695312 L 200.605469 178.695312 C 201.128906 178.695312 201.558594 179.121094 201.558594 179.648438 C 201.558594 180.171875 201.128906 180.601562 200.605469 180.601562 L 187.425781 180.601562 C 186.898438 180.601562 186.472656 180.171875 186.472656 179.648438 C 186.472656 179.121094 186.898438 178.695312 187.425781 178.695312 "/>
<path style=" stroke:none;fill-rule:nonzero;fill:rgb(100%,100%,100%);fill-opacity:1;" d="M 200.605469 183.777344 L 187.425781 183.777344 C 186.898438 183.777344 186.472656 183.351562 186.472656 182.824219 C 186.472656 182.296875 186.898438 181.871094 187.425781 181.871094 L 200.605469 181.871094 C 201.128906 181.871094 201.558594 182.296875 201.558594 182.824219 C 201.558594 183.351562 201.128906 183.777344 200.605469 183.777344 "/>
<path style=" stroke:none;fill-rule:nonzero;fill:rgb(100%,100%,100%);fill-opacity:1;" d="M 185.777344 186.46875 L 186.476562 186.46875 C 186.472656 186.417969 186.472656 186.367188 186.472656 186.320312 L 186.472656 185.046875 L 201.558594 185.046875 L 201.558594 186.320312 C 201.558594 186.367188 201.558594 186.417969 201.554688 186.46875 L 202.292969 186.46875 C 202.578125 186.46875 202.839844 186.585938 203.027344 186.773438 C 203.207031 186.953125 203.320312 187.199219 203.328125 187.472656 C 203.347656 188.054688 202.839844 188.535156 202.25 188.535156 L 201.082031 188.535156 C 200.382812 190.085938 198.976562 191.246094 197.269531 191.601562 L 197.269531 192.113281 C 197.269531 193.734375 195.636719 195.050781 194.011719 195.050781 C 192.390625 195.050781 190.757812 193.734375 190.757812 192.113281 L 190.757812 191.601562 C 189.054688 191.246094 187.644531 190.085938 186.949219 188.535156 L 185.734375 188.535156 C 185.449219 188.535156 185.1875 188.417969 185 188.234375 C 184.824219 188.050781 184.707031 187.808594 184.703125 187.535156 C 184.683594 186.949219 185.1875 186.46875 185.777344 186.46875 "/>
<path style=" stroke:none;fill-rule:nonzero;fill:rgb(100%,100%,100%);fill-opacity:1;" d="M 190.574219 152.085938 C 189.054688 151.511719 187.867188 150.777344 187.480469 149.21875 C 187.328125 148.601562 187.367188 147.972656 187.90625 147.527344 C 188.371094 147.140625 188.898438 147.03125 189.484375 147.273438 C 190.046875 147.507812 190.308594 147.964844 190.351562 148.527344 C 190.449219 149.667969 190.5 150.816406 190.574219 152.085938 Z M 197.527344 152.046875 C 197.597656 150.800781 197.644531 149.648438 197.742188 148.503906 C 197.8125 147.652344 198.496094 147.085938 199.300781 147.148438 C 200.125 147.210938 200.679688 147.832031 200.667969 148.699219 C 200.648438 149.886719 199.984375 150.695312 199.0625 151.335938 C 198.621094 151.636719 198.15625 151.898438 197.527344 152.046875 Z M 205.054688 157.496094 C 203.585938 160.070312 201.804688 162.460938 200.480469 165.132812 C 199.214844 167.683594 198.449219 170.378906 198.238281 173.207031 C 198.183594 173.941406 197.914062 174.113281 197.253906 174.085938 C 196.679688 174.0625 196.097656 174.0625 195.519531 174.066406 C 196.0625 167.695312 197.132812 158.683594 197.4375 153.523438 C 198.339844 153.230469 199.144531 152.910156 199.867188 152.410156 C 200.9375 151.664062 201.6875 150.714844 201.933594 149.390625 C 202.296875 147.414062 201.34375 146.128906 199.257812 145.871094 C 197.75 145.679688 196.449219 146.980469 196.371094 148.753906 C 196.324219 149.824219 196.242188 150.898438 196.207031 151.976562 C 196.199219 152.371094 196.050781 152.5 195.667969 152.53125 C 194.644531 152.625 193.632812 152.667969 192.601562 152.558594 C 192.039062 152.5 191.894531 152.300781 191.875 151.757812 C 191.816406 150.457031 191.859375 149.136719 191.570312 147.859375 C 191.296875 146.640625 190.175781 145.820312 188.917969 145.824219 C 187.582031 145.832031 186.484375 146.632812 186.199219 147.875 C 185.820312 149.515625 186.441406 150.835938 187.625 151.933594 C 188.480469 152.730469 189.546875 153.160156 190.660156 153.53125 C 190.964844 158.714844 192.03125 167.703125 192.574219 174.078125 C 191.90625 174.074219 191.238281 174.070312 190.570312 174.078125 C 190.136719 174.082031 189.921875 173.964844 189.890625 173.480469 C 189.613281 169.125 187.976562 165.253906 185.625 161.636719 C 184.242188 159.515625 182.777344 157.4375 181.855469 155.054688 C 179.902344 149.992188 179.875 145.027344 183.308594 140.574219 C 186.625 136.265625 191.179688 134.4375 196.539062 135.457031 C 202.234375 136.539062 205.835938 140.144531 207.167969 145.769531 C 208.15625 149.921875 207.148438 153.835938 205.054688 157.496094 Z M 194.023438 174.074219 C 193.988281 174.074219 193.945312 174.074219 193.90625 174.074219 C 193.375 167.839844 192.3125 158.957031 192.015625 153.828125 C 193.421875 154.015625 194.71875 153.9375 196.078125 153.867188 C 195.785156 158.964844 194.722656 167.832031 194.191406 174.074219 C 194.136719 174.074219 194.082031 174.074219 194.023438 174.074219 Z M 210.613281 145.945312 C 209.339844 137.875 202.332031 132.027344 194.851562 131.902344 C 187.996094 131.789062 182.648438 134.640625 179.308594 140.632812 C 176.300781 146.046875 176.675781 151.699219 179.15625 157.25 C 180.136719 159.457031 181.550781 161.417969 182.859375 163.433594 C 185.230469 167.078125 186.628906 171.015625 186.664062 175.398438 C 186.675781 176.816406 187.308594 177.425781 188.75 177.425781 C 190.519531 177.421875 192.285156 177.425781 194.050781 177.425781 C 194.050781 177.421875 194.050781 177.417969 194.050781 177.417969 C 195.769531 177.417969 197.484375 177.417969 199.199219 177.417969 C 200.863281 177.414062 201.402344 176.878906 201.441406 175.230469 C 201.515625 171.660156 202.363281 168.292969 204.203125 165.214844 C 205.359375 163.28125 206.570312 161.382812 207.753906 159.46875 C 210.316406 155.300781 211.375 150.777344 210.613281 145.945312 "/>
</g>
</svg>
