<?xml version="1.0" encoding="UTF-8"?>
<svg xmlns="http://www.w3.org/2000/svg" xmlns:xlink="http://www.w3.org/1999/xlink" width="375pt" height="374.999991pt" viewBox="0 0 375 374.999991" version="1.2">
<defs>
<clipPath id="clip1">
  <path d="M 130.621094 102.648438 L 244.488281 102.648438 L 244.488281 261.648438 L 130.621094 261.648438 Z M 130.621094 102.648438 "/>
</clipPath>
</defs>
<g id="surface1">
<g clip-path="url(#clip1)" clip-rule="nonzero">
<path style=" stroke:none;fill-rule:nonzero;fill:rgb(100%,100%,100%);fill-opacity:1;" d="M 202.667969 211.972656 C 201.054688 203.128906 202.082031 192.960938 210.171875 187.59375 C 213.132812 185.632812 216.804688 184.347656 220.398438 184.734375 C 224.652344 185.191406 227.816406 188.183594 229.128906 192.175781 C 232.335938 201.921875 226 212.46875 217.472656 217.085938 C 213.542969 219.210938 209.042969 219.996094 204.648438 219.589844 C 203.828125 217.089844 203.140625 214.554688 202.667969 211.972656 Z M 131.960938 109.101562 C 136.742188 111.050781 141.042969 115.03125 144.152344 119.070312 C 147.375 123.261719 149.707031 128.164062 150.664062 133.375 C 150.902344 134.664062 151.769531 135.714844 153.191406 135.660156 C 154.371094 135.617188 155.703125 134.421875 155.484375 133.144531 C 154.4375 127.042969 152.070312 121.261719 148.359375 116.28125 C 147.890625 115.65625 147.410156 115.058594 146.917969 114.480469 C 152.015625 117.054688 156.652344 120.480469 160.703125 124.710938 C 167.703125 132.015625 172.597656 141.347656 174.742188 151.210938 C 177.457031 163.714844 174.957031 176.628906 175.921875 189.261719 C 176.828125 201.0625 180.871094 213.554688 191.265625 220.335938 C 194.179688 222.238281 197.398438 223.578125 200.730469 224.328125 C 202.726562 229.480469 205.273438 234.425781 207.976562 238.9375 C 214.007812 248.992188 223.003906 257.671875 234.632812 260.664062 C 237.246094 261.335938 239.9375 261.652344 242.636719 261.664062 C 245.246094 261.675781 245.023438 257.679688 242.441406 257.640625 C 231.804688 257.488281 222.378906 250.992188 216.128906 242.773438 C 212.476562 237.972656 209.703125 232.617188 207.433594 227.046875 C 207.164062 226.382812 206.894531 225.714844 206.632812 225.042969 C 212.214844 225.152344 217.816406 223.65625 222.59375 220.460938 C 231.945312 214.214844 238.03125 201.851562 234.449219 190.730469 C 232.8125 185.644531 229.015625 181.5625 223.859375 179.996094 C 219.691406 178.730469 214.992188 179.316406 211.035156 181.035156 C 206.714844 182.90625 203.019531 185.890625 200.464844 189.851562 C 197.585938 194.3125 196.550781 199.929688 196.628906 205.164062 C 196.695312 209.539062 197.457031 213.949219 198.691406 218.273438 C 195.65625 217.191406 192.84375 215.511719 190.511719 213.285156 C 182.234375 205.378906 180.785156 192.90625 180.785156 182.082031 C 180.78125 170.554688 182.058594 158.960938 179.210938 147.636719 C 174.855469 130.335938 162.320312 114.917969 145.707031 108.089844 C 147.621094 108.046875 149.539062 108.074219 151.46875 108.191406 C 154.4375 108.371094 157.394531 108.796875 160.308594 109.398438 C 163.375 110.035156 166.269531 111.125 169.285156 111.902344 C 172.230469 112.660156 173.835938 108.164062 171.0625 106.886719 C 168.171875 105.554688 164.84375 104.816406 161.742188 104.15625 C 158.46875 103.457031 155.148438 103.035156 151.804688 102.796875 C 145.292969 102.339844 138.644531 102.933594 132.304688 104.503906 C 130.265625 105.011719 129.988281 108.300781 131.960938 109.101562 "/>
</g>
</g>
</svg>
